<?xml version="1.0" encoding="utf-8"?>
<!-- Generator: Adobe Illustrator 22.1.0, SVG Export Plug-In . SVG Version: 6.00 Build 0)  -->
<svg version="1.1" id="Calque_1" xmlns="http://www.w3.org/2000/svg" xmlns:xlink="http://www.w3.org/1999/xlink" x="0px" y="0px"
	 viewBox="0 0 170 110" style="enable-background:new 0 0 170 110;" xml:space="preserve">
<style type="text/css">
	.st0{fill:#4D76AD;}
	.st1{fill:#879BC6;}
	.st2{fill:#B91818;}
</style>
<g>
	<g>
		<path class="st0" d="M74.5,60.7c0,18.7,15.2,33.9,33.9,33.9c18.7,0,33.9-15.2,33.9-33.9c0-18.7-15.2-33.9-33.9-33.9
			C89.7,26.7,74.5,42,74.5,60.7 M81.7,60.7c0-14.7,12-26.7,26.7-26.7c14.7,0,26.7,12,26.7,26.7c0,14.7-12,26.7-26.7,26.7
			C93.7,87.3,81.7,75.4,81.7,60.7"/>
		<path class="st1" d="M108.4,95.2c-19.1,0-34.6-15.5-34.6-34.6s15.5-34.6,34.6-34.6c19.1,0,34.6,15.5,34.6,34.6
			S127.5,95.2,108.4,95.2z M108.4,27.4c-18.3,0-33.2,14.9-33.2,33.2c0,18.3,14.9,33.2,33.2,33.2c18.3,0,33.2-14.9,33.2-33.2
			C141.7,42.3,126.7,27.4,108.4,27.4z M108.4,88C93.3,88,81,75.7,81,60.6c0-15.1,12.3-27.4,27.4-27.4c15.1,0,27.4,12.3,27.4,27.4
			C135.8,75.7,123.5,88,108.4,88z M108.4,34.6c-14.3,0-26,11.7-26,26c0,14.3,11.7,26,26,26c14.4,0,26-11.7,26-26
			C134.4,46.3,122.8,34.6,108.4,34.6z"/>
		<polygon class="st0" points="110.2,11.4 123.7,11.4 113.9,21.7 106.2,21.7 		"/>
		<path class="st1" d="M114.2,22.4h-8.9l4.5-11.7h15.6L114.2,22.4z M107.2,21h6.4l8.5-9h-11.5L107.2,21z"/>
		<polygon class="st0" points="96.1,42.3 120.9,42.3 120.9,50.5 105.6,50.6 105.6,55.9 119.9,55.9 119.9,64.2 105.6,64.2 
			105.6,69.5 120.9,69.5 120.9,77.8 96.1,77.8 		"/>
		<path class="st1" d="M121.5,78.4H95.4V41.6h26.1v9.6l-15.3,0v4h14.3v9.6h-14.3v4h15.3V78.4z M96.8,77.1h23.4v-6.9h-15.3v-6.7h14.3
			v-6.9h-14.3v-6.7l15.3,0V43H96.8V77.1z"/>
	</g>
	<g>
		<path class="st2" d="M31.7,55.8h-3.5c-0.5,0-0.9-0.2-1.2-0.5c-0.3-0.3-0.5-0.7-0.5-1.2V48c0-0.5,0.2-0.9,0.5-1.2
			c0.3-0.3,0.8-0.5,1.2-0.5H30v-1.7h-3.1v-1.7H30c0.5,0,0.9,0.2,1.2,0.5c0.3,0.3,0.5,0.7,0.5,1.2V55.8z M28.2,54.1H30V48h-1.7V54.1z
			"/>
		<path class="st2" d="M40,53.4c0,0.3-0.1,0.7-0.2,1c-0.1,0.3-0.3,0.6-0.6,0.8c-0.2,0.2-0.5,0.4-0.8,0.5c-0.3,0.1-0.7,0.2-1,0.2
			c-0.4,0-0.7-0.1-1-0.2c-0.3-0.1-0.6-0.3-0.8-0.5c-0.2-0.2-0.4-0.5-0.6-0.8c-0.1-0.3-0.2-0.6-0.2-1v-8.1c0-0.3,0.1-0.7,0.2-1
			c0.1-0.3,0.3-0.6,0.6-0.8c0.2-0.2,0.5-0.4,0.8-0.5c0.3-0.1,0.7-0.2,1-0.2c0.4,0,0.7,0.1,1,0.2c0.3,0.1,0.6,0.3,0.8,0.5
			c0.2,0.2,0.4,0.5,0.6,0.8c0.1,0.3,0.2,0.6,0.2,1v1h-1.7v-1.7h-1.7v9.5h1.7v-1.7H40V53.4z"/>
		<path class="st2" d="M48.3,55.8h-3.5c-0.5,0-0.9-0.2-1.2-0.5c-0.3-0.3-0.5-0.7-0.5-1.2V48c0-0.5,0.2-0.9,0.5-1.2
			c0.3-0.3,0.8-0.5,1.2-0.5h1.7v-1.7h-3.1v-1.7h3.1c0.5,0,0.9,0.2,1.2,0.5c0.3,0.3,0.5,0.7,0.5,1.2V55.8z M44.8,54.1h1.7V48h-1.7
			V54.1z"/>
		<path class="st2" d="M56.6,55.8h-3.5c-0.5,0-0.9-0.2-1.2-0.5c-0.3-0.3-0.5-0.7-0.5-1.2v-9.5c0-0.5,0.2-0.9,0.5-1.2
			c0.3-0.3,0.8-0.5,1.2-0.5h1.7v-3.2h1.7V55.8z M53.1,54.1h1.7v-9.5h-1.7V54.1z"/>
		<path class="st2" d="M59.6,45.3c0-0.3,0.1-0.7,0.2-1c0.1-0.3,0.3-0.6,0.6-0.8c0.2-0.2,0.5-0.4,0.8-0.5c0.3-0.1,0.7-0.2,1-0.2
			c0.4,0,0.7,0.1,1,0.2c0.3,0.1,0.6,0.3,0.8,0.5c0.2,0.2,0.4,0.5,0.6,0.8c0.1,0.3,0.2,0.6,0.2,1v4.9h-3.5v3.9h1.7v-1.7h1.7v1
			c0,0.3-0.1,0.7-0.2,1c-0.1,0.3-0.3,0.6-0.6,0.8c-0.2,0.2-0.5,0.4-0.8,0.5c-0.3,0.1-0.7,0.2-1,0.2c-0.4,0-0.7-0.1-1-0.2
			c-0.3-0.1-0.6-0.3-0.8-0.5c-0.2-0.2-0.4-0.5-0.6-0.8c-0.1-0.3-0.2-0.6-0.2-1V45.3z M64.6,40.3l-4.8,1.8v-1.6l4.8-1.8V40.3z
			 M61.4,48.5h1.7v-3.9h-1.7V48.5z"/>
		<path class="st2" d="M67.9,42.9h7c0.5,0,0.9,0.2,1.2,0.5c0.3,0.3,0.5,0.7,0.5,1.2v11.2h-1.7V44.6h-1.7v11.2h-1.7V44.6h-1.7v11.2
			h-1.7V42.9z"/>
		<path class="st2" d="M81.4,41.4h-1.7v-1.7h1.7V41.4z M81.4,55.9c-0.5,0-0.9-0.2-1.2-0.5c-0.3-0.3-0.5-0.7-0.5-1.2V42.9h1.7V55.9z"
			/>
		<path class="st2" d="M84.5,45.3c0-0.3,0.1-0.7,0.2-1c0.1-0.3,0.3-0.6,0.6-0.8c0.2-0.2,0.5-0.4,0.8-0.5s0.7-0.2,1-0.2
			s0.7,0.1,1,0.2c0.3,0.1,0.6,0.3,0.8,0.5c0.2,0.2,0.4,0.5,0.6,0.8c0.1,0.3,0.2,0.6,0.2,1v4.9h-3.5v3.9H88v-1.7h1.7v1
			c0,0.3-0.1,0.7-0.2,1c-0.1,0.3-0.3,0.6-0.6,0.8c-0.2,0.2-0.5,0.4-0.8,0.5c-0.3,0.1-0.7,0.2-1,0.2s-0.7-0.1-1-0.2
			c-0.3-0.1-0.6-0.3-0.8-0.5c-0.2-0.2-0.4-0.5-0.6-0.8c-0.1-0.3-0.2-0.6-0.2-1V45.3z M86.2,48.5H88v-3.9h-1.7V48.5z"/>
	</g>
	<g>
		<path class="st2" d="M43.1,63.2c0-0.3,0.1-0.7,0.2-1c0.1-0.3,0.3-0.6,0.6-0.8c0.2-0.2,0.5-0.4,0.8-0.5c0.3-0.1,0.7-0.2,1-0.2
			c0.4,0,0.7,0.1,1,0.2c0.3,0.1,0.6,0.3,0.8,0.5c0.2,0.2,0.4,0.5,0.6,0.8c0.1,0.3,0.2,0.6,0.2,1v13.7h-1.7v-7.2h-1.7v7.2h-1.7V63.2z
			 M44.8,68.1h1.7v-5.5h-1.7V68.1z"/>
		<path class="st2" d="M51.4,64.1h7c0.5,0,0.9,0.2,1.2,0.5c0.3,0.3,0.5,0.7,0.5,1.2v11.2h-1.7V65.7h-1.7v11.2h-1.7V65.7h-1.7v11.2
			h-1.7V64.1z"/>
		<path class="st2" d="M64.9,62.6h-1.7v-1.7h1.7V62.6z M64.9,77.1c-0.5,0-0.9-0.2-1.2-0.5c-0.3-0.3-0.5-0.7-0.5-1.2V64.1h1.7V77.1z"
			/>
		<path class="st2" d="M67.9,66.4c0-0.3,0.1-0.7,0.2-1c0.1-0.3,0.3-0.6,0.6-0.8s0.5-0.4,0.8-0.5c0.3-0.1,0.7-0.2,1-0.2
			c0.4,0,0.7,0.1,1,0.2c0.3,0.1,0.6,0.3,0.8,0.5c0.2,0.2,0.4,0.5,0.6,0.8c0.1,0.3,0.2,0.6,0.2,1v4.9h-3.5v3.9h1.7v-1.7h1.7v1
			c0,0.3-0.1,0.7-0.2,1c-0.1,0.3-0.3,0.6-0.6,0.8c-0.2,0.2-0.5,0.4-0.8,0.5c-0.3,0.1-0.7,0.2-1,0.2c-0.4,0-0.7-0.1-1-0.2
			c-0.3-0.1-0.6-0.3-0.8-0.5s-0.4-0.5-0.6-0.8c-0.1-0.3-0.2-0.6-0.2-1V66.4z M69.7,69.7h1.7v-3.9h-1.7V69.7z"/>
		<path class="st2" d="M76.2,64.1h3.5c0.5,0,0.9,0.2,1.2,0.5c0.3,0.3,0.5,0.7,0.5,1.2v11.2h-1.7V65.7H78v11.2h-1.7V64.1z"/>
		<path class="st2" d="M87.8,65.7H86v3.9h1.7c0.5,0,0.9,0.2,1.2,0.5c0.3,0.3,0.5,0.7,0.5,1.2v3.2c0,0.3-0.1,0.7-0.2,1
			c-0.1,0.3-0.3,0.6-0.6,0.8c-0.2,0.2-0.5,0.4-0.8,0.5s-0.7,0.2-1,0.2c-0.4,0-0.7-0.1-1-0.2c-0.3-0.1-0.6-0.3-0.8-0.5
			s-0.4-0.5-0.6-0.8c-0.1-0.3-0.2-0.6-0.2-1v-1H86v1.7h1.7v-3.9H86c-0.5,0-0.9-0.2-1.2-0.5c-0.3-0.3-0.5-0.7-0.5-1.2v-3.2
			c0-0.3,0.1-0.7,0.2-1c0.1-0.3,0.3-0.6,0.6-0.8s0.5-0.4,0.8-0.5c0.3-0.1,0.7-0.2,1-0.2c0.4,0,0.7,0.1,1,0.2
			c0.3,0.1,0.6,0.3,0.8,0.5c0.2,0.2,0.4,0.5,0.6,0.8c0.1,0.3,0.2,0.6,0.2,1v1h-1.7V65.7z"/>
	</g>
</g>
</svg>
