<?xml version="1.0" encoding="utf-8"?>
<!-- Generator: Adobe Illustrator 22.1.0, SVG Export Plug-In . SVG Version: 6.00 Build 0)  -->
<svg version="1.1" id="Calque_1" xmlns="http://www.w3.org/2000/svg" xmlns:xlink="http://www.w3.org/1999/xlink" x="0px" y="0px"
	 viewBox="0 0 170 110" style="enable-background:new 0 0 170 110;" xml:space="preserve">
<style type="text/css">
	.st0{fill:#F29100;}
	.st1{fill:#FBCA8C;}
	.st2{fill:#164193;}
</style>
<g>
	<path class="st0" d="M73.8,60.4c0,18.7,15.2,33.9,33.9,33.9c18.7,0,33.9-15.2,33.9-33.9c0-18.7-15.2-33.9-33.9-33.9
		C89,26.5,73.8,41.7,73.8,60.4 M81,60.4c0-14.7,12-26.7,26.7-26.7c14.7,0,26.7,12,26.7,26.7c0,14.7-12,26.7-26.7,26.7
		C93,87.1,81,75.1,81,60.4"/>
	<path class="st1" d="M107.7,94.9c-19.1,0-34.6-15.5-34.6-34.6c0-19.1,15.5-34.6,34.6-34.6c19.1,0,34.6,15.5,34.6,34.6
		C142.3,79.4,126.8,94.9,107.7,94.9z M107.7,27.1c-18.3,0-33.2,14.9-33.2,33.2c0,18.3,14.9,33.2,33.2,33.2
		c18.3,0,33.2-14.9,33.2-33.2C141,42,126.1,27.1,107.7,27.1z M107.7,87.7c-15.1,0-27.4-12.3-27.4-27.4c0-15.1,12.3-27.4,27.4-27.4
		s27.4,12.3,27.4,27.4C135.1,75.5,122.8,87.7,107.7,87.7z M107.7,34.3c-14.3,0-26,11.7-26,26c0,14.3,11.7,26,26,26s26-11.7,26-26
		C133.8,46,122.1,34.3,107.7,34.3z"/>
	<polygon class="st0" points="109.5,11.1 123,11.1 113.2,21.4 105.6,21.4 	"/>
	<path class="st1" d="M113.5,22.1h-8.9l4.5-11.7h15.6L113.5,22.1z M106.5,20.8h6.4l8.5-9H110L106.5,20.8z"/>
	<polygon class="st0" points="95.4,42 120.2,42 120.2,50.3 104.9,50.3 104.9,55.6 119.2,55.6 119.2,63.9 104.9,63.9 104.9,69.2 
		120.2,69.2 120.2,77.5 95.4,77.5 	"/>
	<path class="st1" d="M120.9,78.2H94.7V41.3h26.1v9.6l-15.3,0v4h14.3v9.6h-14.3v4h15.3V78.2z M96.1,76.8h23.4v-6.9h-15.3v-6.7h14.3
		v-6.9h-14.3v-6.7l15.3,0v-6.9H96.1V76.8z"/>
</g>
<g>
	<path class="st2" d="M31.1,55.5h-3.5c-0.5,0-0.9-0.2-1.2-0.5c-0.3-0.3-0.5-0.7-0.5-1.2v-6.1c0-0.5,0.2-0.9,0.5-1.2
		c0.3-0.3,0.8-0.5,1.2-0.5h1.7v-1.7h-3.1v-1.7h3.1c0.5,0,0.9,0.2,1.2,0.5c0.3,0.3,0.5,0.7,0.5,1.2V55.5z M27.6,53.8h1.7v-6.1h-1.7
		V53.8z"/>
	<path class="st2" d="M39.3,53.1c0,0.3-0.1,0.7-0.2,1c-0.1,0.3-0.3,0.6-0.6,0.8c-0.2,0.2-0.5,0.4-0.8,0.5c-0.3,0.1-0.7,0.2-1,0.2
		c-0.4,0-0.7-0.1-1-0.2c-0.3-0.1-0.6-0.3-0.8-0.5c-0.2-0.2-0.4-0.5-0.6-0.8c-0.1-0.3-0.2-0.6-0.2-1V45c0-0.3,0.1-0.7,0.2-1
		c0.1-0.3,0.3-0.6,0.6-0.8c0.2-0.2,0.5-0.4,0.8-0.5c0.3-0.1,0.7-0.2,1-0.2c0.4,0,0.7,0.1,1,0.2c0.3,0.1,0.6,0.3,0.8,0.5
		c0.2,0.2,0.4,0.5,0.6,0.8c0.1,0.3,0.2,0.6,0.2,1v1h-1.7v-1.7h-1.7v9.5h1.7v-1.7h1.7V53.1z"/>
	<path class="st2" d="M47.6,55.5h-3.5c-0.5,0-0.9-0.2-1.2-0.5c-0.3-0.3-0.5-0.7-0.5-1.2v-6.1c0-0.5,0.2-0.9,0.5-1.2
		c0.3-0.3,0.8-0.5,1.2-0.5h1.7v-1.7h-3.1v-1.7h3.1c0.5,0,0.9,0.2,1.2,0.5c0.3,0.3,0.5,0.7,0.5,1.2V55.5z M44.1,53.8h1.7v-6.1h-1.7
		V53.8z"/>
	<path class="st2" d="M55.9,55.5h-3.5c-0.5,0-0.9-0.2-1.2-0.5c-0.3-0.3-0.5-0.7-0.5-1.2v-9.5c0-0.5,0.2-0.9,0.5-1.2
		c0.3-0.3,0.8-0.5,1.2-0.5h1.7v-3.2h1.7V55.5z M52.4,53.8h1.7v-9.5h-1.7V53.8z"/>
	<path class="st2" d="M58.9,45c0-0.3,0.1-0.7,0.2-1c0.1-0.3,0.3-0.6,0.6-0.8c0.2-0.2,0.5-0.4,0.8-0.5c0.3-0.1,0.7-0.2,1-0.2
		c0.4,0,0.7,0.1,1,0.2c0.3,0.1,0.6,0.3,0.8,0.5c0.2,0.2,0.4,0.5,0.6,0.8c0.1,0.3,0.2,0.6,0.2,1v4.9h-3.5v3.9h1.7v-1.7h1.7v1
		c0,0.3-0.1,0.7-0.2,1c-0.1,0.3-0.3,0.6-0.6,0.8c-0.2,0.2-0.5,0.4-0.8,0.5c-0.3,0.1-0.7,0.2-1,0.2c-0.4,0-0.7-0.1-1-0.2
		c-0.3-0.1-0.6-0.3-0.8-0.5c-0.2-0.2-0.4-0.5-0.6-0.8c-0.1-0.3-0.2-0.6-0.2-1V45z M64,40l-4.8,1.8v-1.6l4.8-1.8V40z M60.7,48.2h1.7
		v-3.9h-1.7V48.2z"/>
	<path class="st2" d="M67.2,42.6h7c0.5,0,0.9,0.2,1.2,0.5c0.3,0.3,0.5,0.7,0.5,1.2v11.2h-1.7V44.3h-1.7v11.2h-1.7V44.3H69v11.2h-1.7
		V42.6z"/>
	<path class="st2" d="M80.7,41.1H79v-1.7h1.7V41.1z M80.7,55.6c-0.5,0-0.9-0.2-1.2-0.5C79.2,54.8,79,54.4,79,54V42.6h1.7V55.6z"/>
	<path class="st2" d="M83.8,45c0-0.3,0.1-0.7,0.2-1c0.1-0.3,0.3-0.6,0.6-0.8c0.2-0.2,0.5-0.4,0.8-0.5c0.3-0.1,0.7-0.2,1-0.2
		c0.4,0,0.7,0.1,1,0.2c0.3,0.1,0.6,0.3,0.8,0.5c0.2,0.2,0.4,0.5,0.6,0.8c0.1,0.3,0.2,0.6,0.2,1v4.9h-3.5v3.9h1.7v-1.7H89v1
		c0,0.3-0.1,0.7-0.2,1c-0.1,0.3-0.3,0.6-0.6,0.8c-0.2,0.2-0.5,0.4-0.8,0.5c-0.3,0.1-0.7,0.2-1,0.2c-0.4,0-0.7-0.1-1-0.2
		c-0.3-0.1-0.6-0.3-0.8-0.5c-0.2-0.2-0.4-0.5-0.6-0.8c-0.1-0.3-0.2-0.6-0.2-1V45z M85.5,48.2h1.7v-3.9h-1.7V48.2z"/>
</g>
<g>
	<path class="st2" d="M61.6,60.6h1.7V75h1.7v-3.3h1.7v5h-5.2V60.6z"/>
	<path class="st2" d="M71.2,62.3h-1.7v-1.7h1.7V62.3z M71.2,76.8c-0.5,0-0.9-0.2-1.2-0.5c-0.3-0.3-0.5-0.7-0.5-1.2V63.8h1.7V76.8z"
		/>
	<path class="st2" d="M74.2,60.5c0.5,0,0.9,0.2,1.2,0.5c0.3,0.3,0.5,0.7,0.5,1.2v14.5h-1.7V60.5z"/>
	<path class="st2" d="M79,60.5c0.5,0,0.9,0.2,1.2,0.5c0.3,0.3,0.5,0.7,0.5,1.2v14.5H79V60.5z"/>
	<path class="st2" d="M83.8,66.2c0-0.3,0.1-0.7,0.2-1c0.1-0.3,0.3-0.6,0.6-0.8c0.2-0.2,0.5-0.4,0.8-0.5c0.3-0.1,0.7-0.2,1-0.2
		c0.4,0,0.7,0.1,1,0.2c0.3,0.1,0.6,0.3,0.8,0.5c0.2,0.2,0.4,0.5,0.6,0.8c0.1,0.3,0.2,0.6,0.2,1v4.9h-3.5V75h1.7v-1.7h1.7v1
		c0,0.3-0.1,0.7-0.2,1c-0.1,0.3-0.3,0.6-0.6,0.8c-0.2,0.2-0.5,0.4-0.8,0.5c-0.3,0.1-0.7,0.2-1,0.2c-0.4,0-0.7-0.1-1-0.2
		c-0.3-0.1-0.6-0.3-0.8-0.5c-0.2-0.2-0.4-0.5-0.6-0.8c-0.1-0.3-0.2-0.6-0.2-1V66.2z M85.6,69.4h1.7v-3.9h-1.7V69.4z"/>
</g>
</svg>
